<svg xmlns="http://www.w3.org/2000/svg" viewBox="0 0 500 500"><g id="freepik--background-complete--inject-45"><path d="M125.76,289.32s-11,3.07-1.35,26.67,16.64,35.47,16.64,35.47,1.59,5.42-2.89,5.86-14.09-1.95-16.52,3.29c-2.52,5.43,1.1,11.07,9,16.42s24.66,17.69,26.17,18.81,2.85,3.68-.16,4.47-25.08,1.2-24.26,11.66,25.17,21.76,27.81,23,3.19,2.5,2.84,4-7.79.92-14.06,1.3-13.49,1.9-12.5,7.9,14.81,19.61,50.65,26.24l16.81,2L214.29,463c20.48-30.15,20.52-49.55,17-54.47s-9.74-.86-14.41,3.34-9.51,9.88-10.81,9.09-1.77-2-.83-4.82,10-28,3.16-36-22.67,7.47-25.35,9.06-3.55-1.2-3.29-3,3.3-22.49,5-31.84.26-15.88-5.37-17.91c-5.44-2-10.49,6.54-14,9.43s-6.2-2.07-6.2-2.07-3.5-13.35-13.53-36.76-20.14-17.6-20.14-17.6" style="fill:#ebebeb"></path><path d="M201.84,473.51c-7.3-17.22-17.19-41.1-28-67.52S153.17,355.68,146,338.42L137.41,318c-1-2.4-1.77-4.26-2.31-5.56-.26-.62-.45-1.1-.59-1.45s-.19-.5-.19-.5.09.15.24.47l.64,1.43c.57,1.29,1.38,3.14,2.42,5.52,2.1,4.79,5.08,11.75,8.72,20.37,7.31,17.22,17.19,41.1,28,67.51s20.65,50.32,27.86,67.58" style="fill:#e0e0e0"></path><path d="M134.93,364.49a4.54,4.54,0,0,1,1.15.41c.73.31,1.77.77,3,1.36,2.55,1.19,6,2.92,9.84,4.9l9.71,5.12,3,1.54a4.71,4.71,0,0,1,1.06.61,4.67,4.67,0,0,1-1.16-.41c-.72-.3-1.76-.77-3-1.37-2.54-1.22-6-3-9.8-5l-9.75-5.05L136,365.11A5.51,5.51,0,0,1,134.93,364.49Z" style="fill:#e0e0e0"></path><path d="M163.92,377.45c-.14-.07,3.1-7.4,7.25-16.37s7.64-16.2,7.78-16.14-3.1,7.4-7.25,16.38S164.07,377.52,163.92,377.45Z" style="fill:#e0e0e0"></path><path d="M178.72,418.76a5.83,5.83,0,0,1,.77-1l2.22-2.56c1.88-2.17,4.46-5.17,7.19-8.59s5.11-6.58,6.81-8.89l2-2.73a5.26,5.26,0,0,1,.8-1,5.72,5.72,0,0,1-.61,1.09c-.43.68-1.06,1.66-1.88,2.84-1.61,2.37-3.94,5.59-6.69,9s-5.37,6.4-7.33,8.5c-1,1-1.79,1.88-2.36,2.45A5.18,5.18,0,0,1,178.72,418.76Z" style="fill:#e0e0e0"></path><path d="M149.92,412.81a4.29,4.29,0,0,1,1.15.11c.74.1,1.79.28,3.1.5,2.61.45,6.22,1.12,10.19,1.88s7.56,1.5,10.15,2.06c1.3.27,2.35.51,3.07.68a4.91,4.91,0,0,1,1.11.33,4.37,4.37,0,0,1-1.16-.11c-.73-.1-1.79-.28-3.1-.5-2.61-.45-6.21-1.12-10.18-1.89s-7.56-1.49-10.16-2.05c-1.29-.27-2.34-.51-3.06-.68A4.69,4.69,0,0,1,149.92,412.81Z" style="fill:#e0e0e0"></path><path d="M158.35,450.94a7.53,7.53,0,0,1,1.47.15l4,.64c3.35.56,8,1.38,13.07,2.31s9.71,1.82,13,2.48l3.94.82a6.49,6.49,0,0,1,1.43.38,7.2,7.2,0,0,1-1.47-.16l-4-.63c-3.35-.57-8-1.38-13.07-2.32s-9.71-1.81-13-2.48l-3.95-.82A7.5,7.5,0,0,1,158.35,450.94Z" style="fill:#e0e0e0"></path><path d="M194.45,457.31a8.54,8.54,0,0,1,.94-1.28l2.71-3.36c2.28-2.83,5.42-6.75,8.76-11.18s6.29-8.5,8.39-11.47l2.5-3.51a8.17,8.17,0,0,1,1-1.25,9,9,0,0,1-.78,1.37c-.54.87-1.34,2.11-2.35,3.62-2,3-4.91,7.16-8.27,11.59s-6.54,8.33-8.91,11.1c-1.18,1.38-2.16,2.49-2.85,3.24A8.55,8.55,0,0,1,194.45,457.31Z" style="fill:#e0e0e0"></path><path d="M336,473.41c-23.87-15.31-30.33-45.23-30.47-72.35,0-4.52-.71-9.27,1.28-13.32s6.91-7,11-5.21c3.42,1.45,5,5.29,7,8.45a26.47,26.47,0,0,0,11,9.71c2.94,1.38,6.53,2.15,9.31.47,3.82-2.3,4.07-7.71,3.86-12.2l-1.14-25.13c-.21-4.5-.4-9.09.83-13.41s4.16-8.4,8.39-9.77,9.62.89,10.69,5.26c.45,1.81.15,3.73.35,5.59s1.15,3.89,2.94,4.34,3.57-.89,4.86-2.26c4.46-4.72,7.38-10.69,10.09-16.62s5.34-12,9.36-17.11,9.68-9.27,16.1-9.89,13.45,3.09,15.32,9.34-1.56,12.85-5.39,18.14a100.13,100.13,0,0,1-20.11,20.74c-1.37,1.06-2.87,2.21-3.34,3.89-.86,3,2.1,5.9,5.09,6.77,3.4,1,7,.5,10.54.77s7.38,1.67,8.84,4.93c2,4.53-1.63,9.49-5.29,12.8A86,86,0,0,1,392.29,403c-3.26,1.34-6.7,2.54-9.28,5s-4,6.53-2.29,9.64,5.91,3.95,9.35,3.18,6.47-2.79,9.72-4.16c6.09-2.58,14.08-2.46,18.25,2.72,2.74,3.41,3.16,8.29,2,12.52s-3.68,7.95-6.38,11.38c-9.45,12-21.75,21.86-35.89,27.39s-27.36,7.4-41.81,2.75" style="fill:#f5f5f5"></path><path d="M342.29,456.16a401.73,401.73,0,0,1,14.29-44q2.19-5.75,4.33-11.34c1.43-3.72,2.85-7.41,4.47-10.93a199.78,199.78,0,0,1,10.42-19.7c3.61-6.11,7.27-11.77,10.73-17s6.79-10.12,10-14.4a159.57,159.57,0,0,1,16.69-19.09c2.14-2.09,3.85-3.66,5-4.71l1.35-1.18a3.36,3.36,0,0,1,.47-.38,3.37,3.37,0,0,1-.42.45l-1.28,1.24c-1.14,1.09-2.82,2.69-4.92,4.81A170.16,170.16,0,0,0,397,339.1c-3.18,4.3-6.47,9.16-9.91,14.43s-7.06,11-10.65,17.05a205.47,205.47,0,0,0-10.34,19.65c-1.59,3.51-3,7.17-4.43,10.9s-2.87,7.5-4.33,11.33A412.45,412.45,0,0,0,343,456.35" style="fill:#e0e0e0"></path><path d="M365.61,389.85a9.74,9.74,0,0,1-.51-1.9c-.29-1.23-.64-3-1.05-5.26-.81-4.45-1.72-10.63-2.7-17.45s-2-13-2.85-17.41c-.43-2.22-.8-4-1.07-5.24a9.89,9.89,0,0,1-.33-1.94,8.55,8.55,0,0,1,.64,1.86c.37,1.21.82,3,1.33,5.19,1,4.41,2.12,10.58,3.1,17.41s1.81,12.83,2.46,17.49l.78,5.29A8.87,8.87,0,0,1,365.61,389.85Z" style="fill:#e0e0e0"></path><path d="M423,376.78a13.92,13.92,0,0,1-2.3.36c-1.48.19-3.62.46-6.25.87-5.27.78-12.51,2.11-20.44,3.93s-15,3.8-20.13,5.37c-2.55.76-4.6,1.44-6,1.9a11.92,11.92,0,0,1-2.23.64,12.87,12.87,0,0,1,2.13-1c1.39-.55,3.41-1.32,5.95-2.16,5.07-1.72,12.17-3.78,20.12-5.62a205.16,205.16,0,0,1,20.55-3.7c2.65-.34,4.81-.51,6.3-.6A12.21,12.21,0,0,1,423,376.78Z" style="fill:#e0e0e0"></path><path d="M343,455.07a2.71,2.71,0,0,1-.42-.69l-1.08-2.05c-.92-1.79-2.18-4.41-3.71-7.66-3-6.51-7-15.64-11.17-25.77s-8-19.29-10.95-25.85l-3.47-7.77-.93-2.12a3.13,3.13,0,0,1-.28-.77,2.78,2.78,0,0,1,.43.69l1.07,2.06c.92,1.78,2.19,4.4,3.71,7.66,3,6.51,7,15.64,11.18,25.77s8,19.28,11,25.85l3.46,7.77c.38.84.68,1.54.94,2.12A3,3,0,0,1,343,455.07Z" style="fill:#e0e0e0"></path><path d="M418.79,427.3a3.69,3.69,0,0,1-.75.34l-2.2.84-8.12,3c-6.85,2.53-16.28,6.13-26.7,10.11s-19.89,7.51-26.8,9.89c-3.45,1.2-6.26,2.13-8.21,2.74l-2.25.69a2.69,2.69,0,0,1-.8.18,3.11,3.11,0,0,1,.75-.34l2.2-.84,8.12-3c6.86-2.52,16.29-6.12,26.7-10.11s19.89-7.5,26.8-9.88c3.45-1.2,6.26-2.13,8.21-2.74l2.25-.69A2.69,2.69,0,0,1,418.79,427.3Z" style="fill:#e0e0e0"></path><path d="M393.14,98.28l-17.32,51.47a8.79,8.79,0,0,0,4.53,10.74h0a8.81,8.81,0,0,0,11.53-3.73l26.17-48.16a6.9,6.9,0,0,0-3.54-9.72L402.2,94.05A6.9,6.9,0,0,0,393.14,98.28Z" style="fill:#e0e0e0"></path><path d="M382.12,194.14a13.23,13.23,0,1,1-1.44-18.65A13.24,13.24,0,0,1,382.12,194.14Z" style="fill:#e0e0e0"></path><path d="M421.54,189.44,427.81,208a3.17,3.17,0,0,0,3.65,2.09h0a3.17,3.17,0,0,0,2.5-3.59L431,187a2.49,2.49,0,0,0-3.14-2l-4.6,1.3A2.5,2.5,0,0,0,421.54,189.44Z" style="fill:#e0e0e0"></path><path d="M439.32,219.42a4.78,4.78,0,1,1-4.49-5A4.78,4.78,0,0,1,439.32,219.42Z" style="fill:#e0e0e0"></path></g><g id="freepik--Character--inject-45"><path d="M303.75,164.19c-1.32,4.8-2.65,9.71-2.32,14.67s2.63,10.08,7,12.48c5,2.75,12.64,2.25,14.73,7.56,1.43,3.64-.89,8.16,1.14,11.5,2.88,4.72,10.67,2,15.25,5.15,3.54,2.4,4,7.42,3.59,11.69s-1.2,8.88.94,12.59c2.48,4.28,8.16,6,10.51,10.32,2.89,5.35-.55,11.89-4.4,16.6s-8.51,9.74-8.18,15.81l-71.78,2.21-4.49-114.26Z" style="fill:#263238"></path><path d="M310.18,214.39c-.05,0-.13-.55-.52-1.46a9.6,9.6,0,0,0-2.54-3.32,19.82,19.82,0,0,0-5.39-3.17,50.35,50.35,0,0,1-7.1-3.25,12.47,12.47,0,0,1-3.1-2.66,11,11,0,0,1-1.85-3.34,17.31,17.31,0,0,1-.81-6.34,30.88,30.88,0,0,1,.5-4.26c.09-.5.18-.88.24-1.14s.11-.4.13-.39a10.26,10.26,0,0,1-.17,1.56,39.19,39.19,0,0,0-.33,4.24,17.56,17.56,0,0,0,.89,6.17,10.6,10.6,0,0,0,1.8,3.17,11.73,11.73,0,0,0,3,2.55,54.27,54.27,0,0,0,7,3.25,19.28,19.28,0,0,1,5.44,3.33,9.29,9.29,0,0,1,2.49,3.52,6.28,6.28,0,0,1,.3,1.14C310.19,214.25,310.2,214.39,310.18,214.39Z" style="fill:#455a64"></path><path d="M200,432.57l-8.33,44.71h164s-5.62-26.46-29-55.76Z" style="fill:#263238"></path><path d="M197.62,389.76l-5.89-85.54,9.74-87.55,53.24-7.43,39,4.31,26.57,89.86,7.16,80.08s3.8,12.63,8.21,27.39a18.87,18.87,0,0,1-8.2,21.52c-6.33,3.85-15.79,6.85-29.47,5.42-31.55-3.29-67.32-9.05-84.59-6.17s-19.74-1.23-19.74-1.23-5.45-5.35-3.76-11.52S197.62,389.76,197.62,389.76Z" style="fill:#FF725E"></path><path d="M325.65,383a3.21,3.21,0,0,1-.45.37l-1.34,1L318.92,388c-4.15,3.09-9.81,7.46-16,12.36s-11.81,9.34-15.92,12.5c-2.06,1.58-3.73,2.84-4.9,3.7l-1.36,1a2,2,0,0,1-.49.31,2.76,2.76,0,0,1,.43-.39l1.29-1.05,4.8-3.83,15.82-12.62c6.21-4.9,11.91-9.23,16.13-12.25,2.1-1.51,3.82-2.71,5-3.51l1.4-.91A1.88,1.88,0,0,1,325.65,383Z" style="fill:#fff"></path><path d="M282.67,240.41a17.25,17.25,0,0,1-2.74-3.22,17.47,17.47,0,0,1-2.33-3.54,17.54,17.54,0,0,1,2.74,3.23A16.77,16.77,0,0,1,282.67,240.41Z" style="fill:#263238"></path><path d="M289.08,227.23a30.27,30.27,0,0,0-3.33-3.24,32.54,32.54,0,0,0-4.07-2.27,10,10,0,0,1,7.4,5.51Z" style="fill:#263238"></path><path d="M238.69,238.72a26.75,26.75,0,0,0-2.06,4,25.69,25.69,0,0,0-.8,4.44,7.45,7.45,0,0,1,.31-4.61A7.57,7.57,0,0,1,238.69,238.72Z" style="fill:#263238"></path><path d="M218.4,221.23c0,.15-2.3.2-5.1.61s-5,1-5.07.86a20.57,20.57,0,0,1,10.17-1.47Z" style="fill:#263238"></path><g style="opacity:0.30000000000000004"><path d="M198.13,382.2c13.74-5.65,23-18.9,28.54-32.68S234.84,321,239.88,307c1.47-4.08,4.05-8.75,8.38-8.88,3.56-.11,6.31,3,8.34,5.89,9.64,13.77,15.74,29.64,23.15,44.72s16.63,30,30.54,39.39c2.56,1.74,5.4,3.32,8.5,3.49s6.49-1.43,7.48-4.37a10.83,10.83,0,0,0,.36-3.77q-.19-11.31-.41-22.63c-.15-8.15-.34-16.52-3.42-24.06-4.5-11-14.42-18.69-23.54-26.35-12-10.06-23.34-21-32.42-33.8-3.23-4.53-6.24-9.36-10.62-12.79s-10.6-5.2-15.59-2.74c-5.55,2.74-7.67,9.44-9.26,15.42q-13.65,51.06-30.65,101.15"></path></g><path d="M196.77,377.4c10-.86,17.76-12,20.51-21.68l22.08-77.89-33.72-22.6L192.2,300l9.27-83.35s-30.95,7.84-38.2,45.34c-6.15,31.81-8.27,61.41-6.82,73C156.45,335,156.67,380.83,196.77,377.4Z" style="fill:#FF725E"></path><path d="M254.3,284.37s15.33,38.8,30.46,61.3c14.48,21.52,38.94,43.2,54.65,40.63s23.9-42.6,23.9-57.56-19.21-76.47-19.21-76.47-3.85-34.58-37.29-38.72l-23.54-1.15L319,300.86l-15-17.94a13.9,13.9,0,0,0-.48-10.13c-2.41-5.31-18.33-18.81-18.33-18.81Z" style="fill:#FF725E"></path><path d="M193,288.92a6.93,6.93,0,0,1-.37-1.23c-.19-.8-.5-2-.92-3.37a70.26,70.26,0,0,0-9.88-20.69c-.84-1.21-1.54-2.18-2-2.84a7.51,7.51,0,0,1-.73-1.06,5.66,5.66,0,0,1,.89.94c.55.62,1.3,1.56,2.18,2.75a61.17,61.17,0,0,1,9.94,20.8c.37,1.44.62,2.61.76,3.43A5.2,5.2,0,0,1,193,288.92Z" style="fill:#263238"></path><path d="M302.47,336.53a3.19,3.19,0,0,1-.23-.5l-.57-1.49c-.24-.65-.53-1.45-.81-2.4s-.64-2-.92-3.21-.64-2.52-.9-4-.52-3-.76-4.59a71.54,71.54,0,0,1,.39-21.27c.3-1.61.56-3.15.92-4.56s.69-2.73,1.05-3.92.72-2.25,1-3.18.62-1.72.89-2.36.46-1.08.62-1.47a3,3,0,0,1,.25-.5,1.83,1.83,0,0,1-.15.54l-.53,1.5c-.24.65-.53,1.44-.81,2.38s-.66,2-1,3.19-.68,2.49-1,3.91-.59,2.94-.88,4.55a75.3,75.3,0,0,0-.39,21.13c.23,1.61.42,3.15.72,4.57s.54,2.75.83,3.95.59,2.27.84,3.22.51,1.76.73,2.41.34,1.12.47,1.52A2.24,2.24,0,0,1,302.47,336.53Z" style="fill:#263238"></path><path d="M343.72,345.67a1.4,1.4,0,0,1,0-.47q0-.56.09-1.35c.05-.59.1-1.3.09-2.13s.06-1.78,0-2.82c0-.53-.06-1.08-.09-1.64s-.14-1.16-.21-1.77c-.11-1.22-.4-2.51-.66-3.86a43.33,43.33,0,0,0-7.33-16.27c-.85-1.09-1.62-2.15-2.47-3.05-.41-.45-.78-.92-1.18-1.32l-1.17-1.15c-.73-.76-1.47-1.34-2.1-1.9a16.58,16.58,0,0,0-1.66-1.33l-1.07-.83c-.24-.19-.36-.3-.35-.32a2.19,2.19,0,0,1,.41.23l1.13.75a16.39,16.39,0,0,1,1.73,1.28,28.14,28.14,0,0,1,2.16,1.85c.38.36.79.74,1.2,1.14s.8.86,1.23,1.31c.86.9,1.66,2,2.52,3.06a42.16,42.16,0,0,1,7.42,16.44c.25,1.38.52,2.68.62,3.92.06.62.15,1.21.18,1.79s0,1.12.06,1.65c.06,1.06,0,2-.05,2.85a16.84,16.84,0,0,1-.18,2.14c-.08.53-.14,1-.19,1.34A1.54,1.54,0,0,1,343.72,345.67Z" style="fill:#263238"></path><path d="M344.68,318.37a28.33,28.33,0,0,1-2.18-2.47,48.9,48.9,0,0,0-5.52-5.62,16,16,0,0,0-6.81-3.66,18.91,18.91,0,0,0-3.23-.22,3.09,3.09,0,0,1,.86-.19,4.19,4.19,0,0,1,1.05-.07h.66l.73.11a15.13,15.13,0,0,1,7.08,3.62,39.37,39.37,0,0,1,5.47,5.79c.62.8,1.11,1.47,1.43,1.94A3.08,3.08,0,0,1,344.68,318.37Z" style="fill:#263238"></path><path d="M351.7,311.25c-.08.18-3.69-2-8.67-3s-9.15-.25-9.16-.44a10,10,0,0,1,2.69-.46,23.6,23.6,0,0,1,6.57.39,26,26,0,0,1,6.23,2.14A10.55,10.55,0,0,1,351.7,311.25Z" style="fill:#263238"></path><path d="M329.88,225.3a1.89,1.89,0,0,1-.49.29l-1.45.74-1.05.52c-.37.2-.75.47-1.18.73a24.41,24.41,0,0,0-2.8,1.9l-1.56,1.21c-.52.44-1,.95-1.57,1.45a41.45,41.45,0,0,0-3.22,3.43,51.34,51.34,0,0,0-5.78,9.09,74.3,74.3,0,0,0-6,18.65c-.27,1.24-.41,2.37-.58,3.35s-.29,1.85-.38,2.55l-.22,1.61a2,2,0,0,1-.12.55,3.38,3.38,0,0,1,0-.56c0-.43.08-1,.13-1.63s.14-1.56.29-2.56.26-2.13.51-3.37a70.13,70.13,0,0,1,5.93-18.82,50.34,50.34,0,0,1,5.88-9.17,40.52,40.52,0,0,1,3.3-3.44c.55-.5,1.07-1,1.6-1.44l1.6-1.2a23.52,23.52,0,0,1,2.87-1.85c.44-.25.83-.51,1.22-.7l1.07-.49,1.5-.65A2.07,2.07,0,0,1,329.88,225.3Z" style="fill:#263238"></path><path d="M183.57,314.72a2.35,2.35,0,0,1,.08-.29l.28-.83c.26-.74.63-1.82,1.11-3.21,1-2.82,2.42-6.91,4.24-12.08l15.05-42.42.1-.27.25.15c5.45,3.15,10.74,7.14,16.56,10.78l18.26,11.06.16.1,0,.19c-.36,1.24-.74,2.57-1.12,3.91l-22.44,77.88h0c-3.43,7.61-7.59,13.06-11.39,15.66a10.92,10.92,0,0,1-4.8,2,6.8,6.8,0,0,1-1.35.06l-.45,0a3.92,3.92,0,0,1,.46,0,8.49,8.49,0,0,0,1.33-.1,11.21,11.21,0,0,0,4.7-2.05c3.72-2.6,7.83-8.06,11.18-15.63v0c5.32-18.65,13.33-46.67,22.26-77.94.38-1.34.76-2.67,1.12-3.91l.11.3L221,267c-5.84-3.66-11.12-7.66-16.53-10.81l.34-.12c-6.23,17.33-11.51,32-15.23,42.36l-4.37,12c-.51,1.38-.9,2.45-1.18,3.19l-.31.81A1.2,1.2,0,0,1,183.57,314.72Z" style="fill:#263238"></path><path d="M184.37,314c0,.09-1.32.64-3.37,1.81a33.15,33.15,0,0,0-12.64,13c-1.12,2.08-1.63,3.46-1.71,3.43a3.27,3.27,0,0,1,.28-1,22.85,22.85,0,0,1,1.1-2.59,30.16,30.16,0,0,1,12.79-13.18,21.35,21.35,0,0,1,2.57-1.17A4.06,4.06,0,0,1,184.37,314Z" style="fill:#263238"></path><path d="M184.75,311.09a19.6,19.6,0,0,1-2.68.06,35.76,35.76,0,0,0-12.54,2.47,19.71,19.71,0,0,1-2.49,1,10,10,0,0,1,2.35-1.3,28.84,28.84,0,0,1,12.69-2.5A9.88,9.88,0,0,1,184.75,311.09Z" style="fill:#263238"></path><path d="M328.94,384.84l-.6-.22-1.73-.7c-.74-.34-1.72-.64-2.77-1.21l-3.69-1.88a89.57,89.57,0,0,1-20.54-16.4c-7.75-8-15.68-18.74-23.15-31.41A284.78,284.78,0,0,1,256,289.82c-.67-1.8-1.32-3.58-1.92-5.37l-.05-.16.12-.11,34.3-33.31.18-.17.16.17a109,109,0,0,1,13.08,16.8A32.42,32.42,0,0,1,304,272a12,12,0,0,1,1.06,4.52,7.49,7.49,0,0,1-.46,2.21,15.52,15.52,0,0,0-.49,2.07,6.27,6.27,0,0,0,0,2,1.73,1.73,0,0,0,1.05,1.39l.06,0,0,0,15.4,16,4.1,4.29,1.05,1.11.34.39-.38-.35-1.08-1.08c-1-1-2.35-2.4-4.16-4.23l-15.51-15.88.1,0a2,2,0,0,1-1.34-1.65,6.46,6.46,0,0,1,0-2.15,15.81,15.81,0,0,1,.48-2.12,7.18,7.18,0,0,0,.45-2.11,11.9,11.9,0,0,0-1.05-4.37,33,33,0,0,0-2.2-4.25,108.6,108.6,0,0,0-13.06-16.68h.33l-34.27,33.35.06-.26c.6,1.77,1.25,3.56,1.92,5.34a286.48,286.48,0,0,0,20.41,43.15c7.44,12.65,15.31,23.39,23,31.4a90.63,90.63,0,0,0,20.37,16.47l3.65,1.92c1.05.58,2,.9,2.76,1.25l1.7.75Z" style="fill:#263238"></path><path d="M272.25,339.67a6.11,6.11,0,0,1-1.36-.05,22.08,22.08,0,0,1-3.66-.69,25.4,25.4,0,0,1-17.38-16.11,22.74,22.74,0,0,1-.95-3.6,6.12,6.12,0,0,1-.16-1.35c.11,0,.35,1.92,1.46,4.82a26.29,26.29,0,0,0,17.13,15.89C270.31,339.47,272.26,339.56,272.25,339.67Z" style="fill:#263238"></path><path d="M303.43,406.44a1,1,0,0,1-.21.16l-.65.43L300,408.66l-1.84,1.16c-.69.41-1.46.8-2.27,1.25-1.65.87-3.47,1.95-5.63,2.87L287,415.47c-1.17.52-2.43.95-3.71,1.46-2.54,1.05-5.37,1.87-8.33,2.8a105.56,105.56,0,0,1-39.9,3.56c-3.07-.39-6-.69-8.7-1.28-1.35-.27-2.66-.47-3.9-.77l-3.56-.92c-2.29-.52-4.27-1.26-6.05-1.83-.88-.29-1.7-.54-2.45-.82l-2-.82-2.78-1.15-.72-.31-.24-.13a1.5,1.5,0,0,1,.26.08l.74.26,2.82,1.06,2,.77c.75.27,1.58.5,2.47.79,1.77.53,3.76,1.25,6,1.75l3.56.87c1.23.3,2.55.49,3.89.75,2.69.57,5.61.85,8.67,1.22a107.36,107.36,0,0,0,39.72-3.54c2.95-.91,5.77-1.71,8.31-2.75,1.28-.49,2.54-.91,3.7-1.42l3.35-1.49c2.15-.9,4-1.95,5.64-2.79.82-.44,1.59-.82,2.28-1.21l1.86-1.13,2.58-1.54c.28-.15.5-.28.68-.39Z" style="fill:#263238"></path><path d="M289.71,380.77a1.79,1.79,0,0,1-.22.49c-.2.36-.44.8-.73,1.35s-.72,1.29-1.24,2.08-1.08,1.72-1.8,2.67l-1.11,1.51c-.39.52-.84,1-1.28,1.57-.87,1.11-1.92,2.18-3,3.34a64.21,64.21,0,0,1-7.76,6.71,63.22,63.22,0,0,1-8.82,5.25c-1.43.66-2.79,1.31-4.11,1.79s-2.54.94-3.68,1.29-2.18.63-3.1.87a23.44,23.44,0,0,1-2.37.52l-1.51.27a3.4,3.4,0,0,1-.53.06,1.66,1.66,0,0,1,.51-.16l1.49-.37c.65-.14,1.44-.32,2.34-.6s1.95-.52,3.06-.94,2.35-.79,3.63-1.35,2.64-1.15,4.06-1.81A60.71,60.71,0,0,0,280,393.44c1.07-1.13,2.12-2.19,3-3.28.44-.53.9-1,1.29-1.54l1.13-1.48c.74-.92,1.31-1.83,1.85-2.61s1-1.46,1.31-2l.82-1.29C289.59,380.91,289.69,380.76,289.71,380.77Z" style="fill:#263238"></path><path d="M266.63,287.13a15.56,15.56,0,0,1-4.43-9.31c.15,0,.66,2.25,1.89,4.81S266.75,287,266.63,287.13Z" style="fill:#263238"></path><path d="M276.13,277a29.23,29.23,0,0,1-2.43-4.85,28.78,28.78,0,0,1-1.95-5.06,27.43,27.43,0,0,1,2.43,4.85A28.14,28.14,0,0,1,276.13,277Z" style="fill:#263238"></path><path d="M286.43,267.32c-.15.05-.94-2-2.23-4.42s-2.56-4.23-2.43-4.32a19.62,19.62,0,0,1,4.66,8.74Z" style="fill:#263238"></path><path d="M223.65,282.74a39.27,39.27,0,0,1,1.52-6.15c.52-1.82,1-3.43,1.4-4.51v0a5.1,5.1,0,0,1,.41-1.57,5.46,5.46,0,0,1-.07,1.62h0v0c-.27,1.11-.71,2.75-1.23,4.56A38.81,38.81,0,0,1,223.65,282.74Z" style="fill:#263238"></path><path d="M213.09,261.08a19.1,19.1,0,0,1-1.17,4.28,18.84,18.84,0,0,1-1.65,4.11,37.22,37.22,0,0,1,2.82-8.39Z" style="fill:#263238"></path><g style="opacity:0.2"><path d="M184,314.47a4.84,4.84,0,0,0-2.86-3.9,14.46,14.46,0,0,0-4.92-1.12,20.64,20.64,0,0,0,6.93-3.76c2.19-2.06,3.36-5,4.47-7.76,2.54-6.42,5.1-13.57,2.69-20-.38-1-.56-2.58.5-2.72.71-.1,1.2.67,1.5,1.32,1,2.23,2,4.46,3.05,6.68"></path></g><g style="opacity:0.2"><path d="M250,322.34a24.38,24.38,0,0,0,1.83,12c1.5,3.49,4,6.75,7.51,8.18s8.11.55,10.15-2.65c-4.24-1.54-8.55-3.11-12.13-5.85s-6.38-6.88-6.38-11.39"></path></g><path d="M314.5,215.65a2.22,2.22,0,0,1-.31.33c-.23.21-.55.51-.95.9l-3.68,3.43L296,232.85l-45,41.24-4.59,4.2-.17.15-.17-.15-43-37.23-12.83-11.19-3.46-3-.89-.8a2,2,0,0,1-.29-.29,3.24,3.24,0,0,1,.32.25l.93.76,3.51,3,12.94,11.06,43.08,37.11h-.34l4.59-4.19c17.59-16.06,33.53-30.59,45.08-41.13l13.71-12.42c1.61-1.45,2.86-2.58,3.74-3.36l1-.86Z" style="fill:#fff"></path><path d="M347.75,268a10.39,10.39,0,0,1-1.73.18c-.56,0-1.24.09-2,.2s-1.69.17-2.67.36-2.06.34-3.2.62-2.35.58-3.62.93a54.1,54.1,0,0,0-15.41,7.35c-1.07.77-2.1,1.48-3,2.23s-1.75,1.44-2.49,2.1-1.39,1.3-2,1.84-1.05,1-1.43,1.46a12.24,12.24,0,0,1-1.23,1.23,10.41,10.41,0,0,1,1.08-1.37c.36-.43.81-.95,1.37-1.52s1.17-1.25,1.92-1.91,1.54-1.43,2.47-2.17,1.93-1.5,3-2.29a57.3,57.3,0,0,1,7.46-4.36,56.17,56.17,0,0,1,8.08-3c1.29-.34,2.51-.68,3.67-.89s2.24-.42,3.24-.56,1.9-.22,2.69-.29,1.48-.11,2-.11A10.75,10.75,0,0,1,347.75,268Z" style="fill:#fff"></path><path d="M351.7,375.19a3.21,3.21,0,0,1,.22-.63c.19-.46.43-1.05.72-1.78a26.63,26.63,0,0,0,1.09-2.83l.6-1.79c.11-.32.22-.64.33-1s.18-.69.28-1.05a43.12,43.12,0,0,0,1.05-4.74c.12-.86.33-1.74.4-2.67s.16-1.88.24-2.85a48.56,48.56,0,0,0-1.12-12.66,54.86,54.86,0,0,0-4.26-12,79,79,0,0,0-5.15-9.07c-1.67-2.46-3.06-4.43-4.08-5.74l-1.15-1.54a2.79,2.79,0,0,1-.37-.56,3.62,3.62,0,0,1,.45.49l1.22,1.48c1.08,1.28,2.52,3.22,4.23,5.67a72.24,72.24,0,0,1,5.28,9.06,53.81,53.81,0,0,1,4.34,12.1,47.92,47.92,0,0,1,1.09,12.8c-.09,1-.18,1.95-.26,2.89s-.3,1.82-.44,2.69a40.79,40.79,0,0,1-1.12,4.76c-.1.36-.18.72-.29,1.06l-.35,1c-.23.64-.44,1.23-.65,1.79a26.78,26.78,0,0,1-1.17,2.81q-.49,1.08-.81,1.74A2.48,2.48,0,0,1,351.7,375.19Z" style="fill:#fff"></path><path d="M305,367.77a7.66,7.66,0,0,0,2.92.27,9.41,9.41,0,0,0,6.51-4.25c2-2.8,3.13-6.78,4.45-11.09a94.29,94.29,0,0,0,3-14.41,97.5,97.5,0,0,0-.3-26.68c-.54-3.38-1.12-6.1-1.56-8l-.51-2.15a3.57,3.57,0,0,1-.15-.75,3.82,3.82,0,0,1,.25.73c.15.53.35,1.24.61,2.12.5,1.86,1.13,4.57,1.72,8a93.42,93.42,0,0,1,.46,26.81,91,91,0,0,1-3.05,14.47c-1.35,4.33-2.57,8.31-4.61,11.17a10.7,10.7,0,0,1-3.43,3.17,8.3,8.3,0,0,1-3.35,1.07,6,6,0,0,1-2.22-.19A4.38,4.38,0,0,1,305,367.77Z" style="fill:#fff"></path><path d="M297.37,300.45a7,7,0,0,1-.78,1.13,10.65,10.65,0,0,1-1,1.26,17.42,17.42,0,0,1-1.49,1.54,20.53,20.53,0,0,1-2,1.71,28.9,28.9,0,0,1-2.44,1.72,32.29,32.29,0,0,1-6.19,2.94,31.84,31.84,0,0,1-6.71,1.41,25.75,25.75,0,0,1-3,.11,20.73,20.73,0,0,1-2.6-.16,17.6,17.6,0,0,1-2.12-.33,11.66,11.66,0,0,1-1.58-.37,6.59,6.59,0,0,1-1.31-.44c0-.11,1.91.5,5,.77a20.75,20.75,0,0,0,2.56.1c.93,0,1.91-.08,2.94-.15a33.5,33.5,0,0,0,6.59-1.44,34.21,34.21,0,0,0,6.11-2.84c.86-.57,1.71-1.08,2.43-1.67a20.28,20.28,0,0,0,2-1.63C296.15,302,297.28,300.37,297.37,300.45Z" style="fill:#fff"></path><path d="M310,289.46a3.71,3.71,0,0,1,0,1.07,22,22,0,0,1-.35,2.87,29.93,29.93,0,0,1-1.08,4.16,32.86,32.86,0,0,1-2.11,4.83,33.74,33.74,0,0,1-2.9,4.39,29.41,29.41,0,0,1-2.9,3.17,23.46,23.46,0,0,1-2.22,1.87,4.68,4.68,0,0,1-.89.58c-.06-.08,1.15-1,2.85-2.71a34.94,34.94,0,0,0,2.78-3.2,36.33,36.33,0,0,0,2.82-4.35,33.54,33.54,0,0,0,3.29-8.81C309.82,291,309.93,289.46,310,289.46Z" style="fill:#fff"></path><path d="M289.3,350.83s0,.06-.14.17l-.46.49-1.81,1.85-6.75,6.74L257.6,382.33l-.14.14-.17-.1-1.46-.84-28.41-16.4-8.57-5-2.32-1.39-.6-.37c-.13-.08-.2-.13-.19-.14s.08,0,.22.1l.62.32,2.37,1.31,8.66,4.88,28.48,16.27,1.46.84-.31,0,22.64-22.13,6.87-6.63,1.88-1.78.49-.45Z" style="fill:#fff"></path><path d="M254.61,328.54a1.1,1.1,0,0,1,0,.34,2.92,2.92,0,0,1-.21,1,4.2,4.2,0,0,1-2.75,2.26,6.61,6.61,0,0,1-5.18-1c-1.72-1.05-3.39-2.44-5.23-3.79-3.65-2.76-6.93-5.28-9.29-7.12l-2.78-2.21a6.26,6.26,0,0,1-1-.87,6.62,6.62,0,0,1,1.1.71l2.88,2.07c2.42,1.77,5.74,4.24,9.38,7,1.84,1.35,3.52,2.77,5.17,3.8a6.26,6.26,0,0,0,4.83,1.09,4.08,4.08,0,0,0,2.66-2A5.4,5.4,0,0,0,254.61,328.54Z" style="fill:#fff"></path><path d="M269.11,315.39a23.74,23.74,0,0,1-2.71,1.37,55,55,0,0,0-12.13,8.05,24.79,24.79,0,0,1-2.31,2,14,14,0,0,1,2.06-2.25,42.79,42.79,0,0,1,12.23-8.11A13.27,13.27,0,0,1,269.11,315.39Z" style="fill:#fff"></path><g style="opacity:0.30000000000000004"><path d="M303.17,283.78c-5.22,13.54-6.16,27.38-4.43,41.79a43.94,43.94,0,0,0,3,9.95,12.24,12.24,0,0,0,5.87,6.56c2.49,1.14,5.82.93,7.53-1.2a7.73,7.73,0,0,0,1.22-5.58c-.44-5-2.65-9.65-4.56-14.3A123.18,123.18,0,0,1,303,283.8"></path></g><g style="opacity:0.30000000000000004"><path d="M338,310.8a28.57,28.57,0,0,1,10.13,16.65,14.93,14.93,0,0,0,1.49,5.08c.94,1.51,2.92,2.57,4.52,1.8,2-.93,2-3.69,1.56-5.81a28.15,28.15,0,0,0-19.26-20.46"></path></g><path d="M255.65,423.39c-.07.12-12.59-6.89-28-15.67s-27.78-16-27.71-16.12,12.59,6.89,28,15.67S255.72,423.26,255.65,423.39Z" style="fill:#fff"></path><path d="M275.31,419.39a5.82,5.82,0,0,1-1,.79l-2.76,2c-2.34,1.66-5.6,3.93-9.21,6.41l-2.8,1.91-.12.09-.14-.08c-3.13-1.73-5.86-3.26-7.79-4.37l-2.26-1.32a3.31,3.31,0,0,1-.79-.54,4.66,4.66,0,0,1,.87.38l2.34,1.19c2,1,4.73,2.51,7.87,4.22h-.26l2.78-1.92c3.62-2.48,6.91-4.7,9.3-6.28l2.86-1.86A5.2,5.2,0,0,1,275.31,419.39Z" style="fill:#fff"></path><g style="opacity:0.30000000000000004"><path d="M297.7,410.4c-3.51-4-9.53-5-14.73-3.8s-9.81,4.06-14.37,6.79-9.38,5.41-14.67,6c-6.19.7-12.28-1.51-18.39-2.72s-13.17-1.18-17.71,3.08a99.16,99.16,0,0,0,42.81,3C277.78,420,297.7,410.4,297.7,410.4Z"></path></g><path d="M224.79,323.41a11.22,11.22,0,0,1-1.67-.18c-.53-.06-1.19-.16-1.94-.32s-1.62-.29-2.55-.53a60.58,60.58,0,0,1-6.52-1.92,62.37,62.37,0,0,1-14.76-7.59,60.63,60.63,0,0,1-5.35-4.19c-.74-.62-1.36-1.24-1.92-1.76s-1-1-1.38-1.4a10.88,10.88,0,0,1-1.12-1.25,8.86,8.86,0,0,1,1.26,1.11c.39.37.86.83,1.44,1.33s1.21,1.1,2,1.69c1.47,1.25,3.29,2.63,5.38,4.08a75.27,75.27,0,0,0,7.1,4.22,73,73,0,0,0,7.56,3.31,65.74,65.74,0,0,0,6.44,2c.92.27,1.78.43,2.52.61s1.39.3,1.92.4A9.59,9.59,0,0,1,224.79,323.41Z" style="fill:#fff"></path><path d="M166,363.41a2.1,2.1,0,0,1-.16-.49c-.09-.39-.21-.86-.35-1.44l-.23-1c-.08-.39-.13-.81-.2-1.26a29.8,29.8,0,0,1-.36-3.08q-.06-.87-.12-1.8c0-.63,0-1.28,0-2,0-1.36.11-2.8.22-4.32a46.51,46.51,0,0,1,6.06-18.71c.8-1.3,1.53-2.55,2.35-3.63.4-.54.76-1.09,1.16-1.58l1.15-1.39a30.79,30.79,0,0,1,2.1-2.28c.32-.32.61-.64.89-.9l.81-.71,1.12-1a1.67,1.67,0,0,1,.42-.31,2.17,2.17,0,0,1-.35.39l-1.05,1-.77.73c-.27.28-.55.6-.86.93-.6.68-1.34,1.41-2,2.32-.35.45-.73.91-1.12,1.4s-.73,1-1.12,1.58c-.8,1.08-1.51,2.33-2.28,3.62a48,48,0,0,0-6,18.53c-.12,1.5-.28,2.92-.27,4.26,0,.67,0,1.32,0,1.94s.06,1.22.08,1.79c0,1.15.2,2.17.29,3.07.06.45.09.87.15,1.25l.19,1.05c.1.58.19,1.06.25,1.45A2.22,2.22,0,0,1,166,363.41Z" style="fill:#fff"></path><path d="M188.71,298.65a6.41,6.41,0,0,1-1.12-.76l-3-2.21-9.84-7.23c-3.86-2.81-7.36-5.35-9.86-7.22-1.25-.94-2.26-1.71-2.95-2.25a5.6,5.6,0,0,1-1-.89,7.48,7.48,0,0,1,1.15.73l3,2.11c2.55,1.8,6.08,4.29,9.94,7.1s7.32,5.41,9.77,7.36c1.23,1,2.21,1.77,2.87,2.34A6.78,6.78,0,0,1,188.71,298.65Z" style="fill:#fff"></path><path d="M295.86,97.08c.38,10.27,14.06,16.49,13.89,26.77-.08,4.41-2.81,8.36-3.35,12.74-.72,5.88,2.57,11.44,3.78,17.24,2.5,11.95-4.45,24.56-14.76,31.1s-23.25,7.8-35.35,6.14" style="fill:#263238"></path><path d="M213.2,94.56c.41,5.52-3.23,10.44-6.9,14.58s-7.75,8.44-8.54,13.91c-1.41,9.69,8.09,18.69,6.13,28.29-1,5.15-5.26,9.28-6,14.47-.73,5,2,9.95,5.3,13.78s7.21,3.26,10.16,7.39a41.6,41.6,0,0,0,12.81,11.39c10.64,5.82,23.4-2.6,28.53-4.12" style="fill:#263238"></path><path d="M297.92,103c.15-5-4.48-8.86-9.13-10.69s-9.83-2.52-14-5.31c-3.67-2.48-6.14-6.33-9.25-9.48a30.78,30.78,0,0,0-51.77,14.12c-1.79,7.12-.57,15.54,5,20.27,6.52,5.49,16.17,4.27,24.52,2.56s17.79-3.39,24.76,1.51c4.2,3,6.61,7.76,9.18,12.21s5.79,9,10.65,10.67,11.45-1.22,11.64-6.35" style="fill:#263238"></path><path d="M231.47,219.44c-.07-11.47-.14-22.65-.14-22.59s-18.22-3.07-22-26.86c-1.85-11.83-1.21-31.22-.18-47.07.93-14.27,10.43-31.75,24.64-30.22L278.21,104a8.36,8.36,0,0,1,7.46,8.5h0l-4.06,107.72a25.08,25.08,0,0,1-25.56,24.13h0A25.09,25.09,0,0,1,231.47,219.44Z" style="fill:#ffbe9d"></path><path d="M216.76,136.51a3,3,0,0,0,2.93,3.08,2.91,2.91,0,0,0,3.15-2.74,3.06,3.06,0,0,0-2.93-3.09A2.92,2.92,0,0,0,216.76,136.51Z" style="fill:#263238"></path><path d="M213.39,133c.38.39,2.69-1.31,6-1.29s5.69,1.66,6,1.26c.18-.18-.21-.9-1.25-1.67a8.42,8.42,0,0,0-4.84-1.5,8,8,0,0,0-4.75,1.53C213.55,132.12,213.2,132.84,213.39,133Z" style="fill:#263238"></path><path d="M248.62,137.33a3.07,3.07,0,0,0,2.94,3.09,2.93,2.93,0,0,0,3.15-2.75,3,3,0,0,0-2.93-3.08A2.92,2.92,0,0,0,248.62,137.33Z" style="fill:#263238"></path><path d="M245.65,133.7c.38.4,2.69-1.31,6-1.29s5.69,1.66,6.05,1.26c.17-.18-.21-.9-1.26-1.66a8.34,8.34,0,0,0-4.83-1.5,8,8,0,0,0-4.76,1.52C245.81,132.8,245.47,133.52,245.65,133.7Z" style="fill:#263238"></path><path d="M233.68,158c0-.18-2-.54-5.32-1-.84-.09-1.64-.26-1.78-.83a4.31,4.31,0,0,1,.57-2.48l2.49-6.38c3.46-9.08,6-16.54,5.61-16.68s-3.48,7.11-6.94,16.19q-1.25,3.36-2.39,6.42a4.88,4.88,0,0,0-.44,3.29,2.11,2.11,0,0,0,1.38,1.22,5.2,5.2,0,0,0,1.42.2C231.61,158.18,233.67,158.2,233.68,158Z" style="fill:#263238"></path><path d="M231.33,196.85a60.45,60.45,0,0,0,31.87-8.43c-.27.06-8.77,16.54-31.56,14.05Z" style="fill:#eb996e"></path><path d="M245,117.45c.08.94,3.35,1.39,6.95,2.85s6.32,3.28,7,2.64c.32-.31,0-1.26-1-2.42a13.09,13.09,0,0,0-10.65-4.19C245.84,116.51,245,117,245,117.45Z" style="fill:#263238"></path><path d="M214.05,123.69c.72.62,2.78-.6,5.43-1.18s5-.52,5.38-1.39c.16-.42-.35-1.07-1.48-1.56a7.69,7.69,0,0,0-4.67-.29,5.1,5.1,0,0,0-4,2.36C213.88,122.57,213.73,123.39,214.05,123.69Z" style="fill:#263238"></path><path d="M288.27,183.59c-6.54,1.32-7.12-2-12-6.56a21.49,21.49,0,0,1-6.57-18.12c.74-5.84,3.89-11.78,1.86-17.31-2.67-7.31-12.92-9.56-15.64-16.85-1.58-4.24-.16-9.2-1.95-13.36-1.69-3.9-5.8-6.15-9.8-7.6s-8.29-2.44-11.65-5.05-5.45-7.54-3.28-11.2a225.16,225.16,0,0,1,52,12.62c3.88,1.45,8,3.2,10.25,6.64,2.43,3.66,2.31,8.37,2.11,12.75q-1.5,32-3,64.07" style="fill:#263238"></path><path d="M303.23,135.07a18.26,18.26,0,0,1,34.55-6.32c3.31,6.72,2.16,14.89-.93,21.71-3.66,8.11-11.17,15.51-20.06,15.11-8.36-.38-15.1-7.72-17.5-15.74s-1.44-16.61-.45-24.92" style="fill:#263238"></path><path d="M307.89,167.64a4,4,0,0,0,1.25-1.38,11.64,11.64,0,0,0,1.77-4.76,22.68,22.68,0,0,0-.21-7.51c-.49-2.8-1.43-5.73-2.12-8.85a22.27,22.27,0,0,1-.52-8.8c.49-2.65,1.74-4.9,2.29-7a9,9,0,0,0,.14-5.08c-.38-1.18-.89-1.66-.93-1.63s.3.6.53,1.73a9.44,9.44,0,0,1-.45,4.77c-.6,2-1.93,4.16-2.52,7a22.14,22.14,0,0,0,.44,9.21c.71,3.17,1.67,6.1,2.19,8.79a23.71,23.71,0,0,1,.43,7.24C309.74,165.58,307.69,167.53,307.89,167.64Z" style="fill:#455a64"></path><path d="M308.24,139.08c-.09.06,1,1.72,3.64,3.57a20.87,20.87,0,0,0,23.51.41c2.67-1.76,3.85-3.37,3.77-3.44s-1.49,1.27-4.15,2.81a21.71,21.71,0,0,1-22.72-.4C309.68,140.4,308.37,139,308.24,139.08Z" style="fill:#455a64"></path><path d="M309.42,142.81c-.1.05.48,1.58,2,3.73a26,26,0,0,0,17.24,10.37c2.61.34,4.24.14,4.24,0s-1.61-.24-4.12-.76A29.64,29.64,0,0,1,312,146.09C310.38,144.12,309.57,142.72,309.42,142.81Z" style="fill:#455a64"></path><path d="M303.43,175.6s.1-.08.26-.29a8.86,8.86,0,0,0,.66-.95,12.7,12.7,0,0,0,1.56-4.16,14.59,14.59,0,0,0-.38-7,13.4,13.4,0,0,0-5.53-7.45c-2.83-2-6.5-3.37-8.83-6.54a7.14,7.14,0,0,1-1.3-5.58,32.3,32.3,0,0,1,2.07-6.18,17.75,17.75,0,0,0-.3-14.2,15.53,15.53,0,0,0-4.83-6,19,19,0,0,0-7.29-3c-2.58-.58-5.15-.92-7.53-1.64a14.68,14.68,0,0,1-6.31-3.45,10.49,10.49,0,0,1-2.73-6.24A55.12,55.12,0,0,0,261.83,96a23.89,23.89,0,0,0-6.42-11.25,18.74,18.74,0,0,0-10.11-5,15,15,0,0,0-9.19,1.39,14.51,14.51,0,0,0-5.32,4.6,12.43,12.43,0,0,0-1.86,4,6.07,6.07,0,0,0-.23,1.53,14.92,14.92,0,0,1,2.42-5.33,14.32,14.32,0,0,1,14.07-5.5,18.13,18.13,0,0,1,9.62,4.91,23,23,0,0,1,6.08,10.86A54.22,54.22,0,0,1,262,103a11.5,11.5,0,0,0,3,6.81,15.6,15.6,0,0,0,6.74,3.72c2.5.76,5.07,1.1,7.6,1.67a18,18,0,0,1,6.91,2.85,14.56,14.56,0,0,1,4.51,5.59,16.79,16.79,0,0,1,.33,13.42,32.12,32.12,0,0,0-2.07,6.38,8,8,0,0,0,1.5,6.23c2.59,3.41,6.37,4.74,9.11,6.64a12.85,12.85,0,0,1,5.39,7,14.48,14.48,0,0,1,.54,6.78A15.91,15.91,0,0,1,303.43,175.6Z" style="fill:#455a64"></path><path d="M301.84,109.2a2.62,2.62,0,0,0,.29-1.1,5.09,5.09,0,0,0-.79-3.15,8,8,0,0,0-4-3.29,12.53,12.53,0,0,0-6.84-.23c-2.49.47-5.07,1.47-7.9,2s-6.1.61-8.6-1.36-3.8-5.25-5.1-8.56a35.68,35.68,0,0,0-5.49-9.79,32.86,32.86,0,0,0-18-11.64,18.8,18.8,0,0,0-9.51.25,14.77,14.77,0,0,0-7,4.49,11,11,0,0,0-2.64,6.31,10.69,10.69,0,0,0,.79,5.09A8.23,8.23,0,0,0,228.92,91a3.49,3.49,0,0,0,.88.72,11.73,11.73,0,0,1-2.29-3.59,10.65,10.65,0,0,1-.59-4.89,10.51,10.51,0,0,1,2.62-5.88,14.16,14.16,0,0,1,6.65-4.14,18,18,0,0,1,9-.14,32.27,32.27,0,0,1,17.39,11.35A34.93,34.93,0,0,1,268,93.91c1.32,3.28,2.62,6.8,5.47,9a9,9,0,0,0,4.69,1.76,16.15,16.15,0,0,0,4.65-.32c2.94-.61,5.48-1.65,7.9-2.15a12.15,12.15,0,0,1,6.47,0,7.78,7.78,0,0,1,3.84,3,5.16,5.16,0,0,1,.92,2.93C301.92,108.81,301.78,109.19,301.84,109.2Z" style="fill:#455a64"></path><path d="M309.32,170.78a5.33,5.33,0,0,1-.5,1.13,20.85,20.85,0,0,1-1.83,2.87A23.27,23.27,0,0,1,287.41,184a21.22,21.22,0,0,1-3.37-.41,5.18,5.18,0,0,1-1.2-.34c0-.1,1.75.34,4.58.38a24.12,24.12,0,0,0,19.28-9.09C308.47,172.34,309.23,170.73,309.32,170.78Z" style="fill:#455a64"></path><path d="M234.46,180.49l10.63,15.45,2,8.93s.36-2.84.93-5.53,0-10.77,0-10.77L240.27,177s-4.53-6.38-.7-10.21l7.57,7.51s-6.44-8.95-2-12.27l6.25,5.29a2.52,2.52,0,0,1,.63-3.82l16.08,15.48,2,25.94-.85,27.35,16,21L262,276s-21.7-35.37-23-40.76-.05-35.07-.05-35.07-6.6-9.54-6.52-13.75S234.46,180.49,234.46,180.49Z" style="fill:#ffbe9d"></path><path d="M252.76,259.79s-.07-.07-.18-.23l-.49-.7-1.85-2.8c-1.6-2.47-3.92-6.12-6.7-10.9a74.43,74.43,0,0,1-4.22-8.18,15.39,15.39,0,0,1-1-5.2c-.11-1.81-.17-3.69-.19-5.63-.11-7.77.08-16.56.42-26.2l.08.27a62.17,62.17,0,0,1-5.29-9.19,20.1,20.1,0,0,1-1-2.63,11,11,0,0,1-.3-1.43l0-.76,0-.73a11.72,11.72,0,0,1,.56-2.89,7.23,7.23,0,0,1,1.53-2.67l.38-.4.33.48c3.39,4.91,7,10.09,10.65,15.44l.06.08,0,.09c.64,2.8,1.34,5.84,2,8.93l-1,0c.21-1.29.43-2.61.66-3.94q.16-1,.33-2a17.87,17.87,0,0,0,.15-2c.08-2.7-.05-5.5-.23-8.29l.09.25-4.68-7c-.79-1.19-1.6-2.38-2.4-3.59-.39-.6-.83-1.19-1.22-1.85a16.75,16.75,0,0,1-1-2,10,10,0,0,1-.81-4.11,5.74,5.74,0,0,1,1.67-3.92l.37-.36.36.36,7.57,7.51-.78.67a24.22,24.22,0,0,1-3.16-6.23,9.39,9.39,0,0,1-.49-3.52,4.48,4.48,0,0,1,1.72-3.23l.34-.25.3.28,6.4,5.77-.75.66a4.22,4.22,0,0,1-.71-2.5,3,3,0,0,1,1.31-2.27l.34-.24.3.28,16.05,15.29.13.12v.18c.7,9.33,1.34,18,1.93,25.94v0c-.37,10.53-.69,19.7-1,27.35l-.06-.18L280.69,247l3,4.06.74,1.06c.17.24.25.36.23.37a1.66,1.66,0,0,1-.29-.32l-.81-1-3.08-4-11.49-15-.06-.08V232c.21-7.65.46-16.82.75-27.35v0c-.63-7.93-1.31-16.6-2.05-25.93l.14.3q-7.68-7.28-16.1-15.24l.64,0a2,2,0,0,0-.91,1.54,3.32,3.32,0,0,0,.54,1.86l2,3.1-2.71-2.44-6.41-5.77.65,0a3.41,3.41,0,0,0-1.31,2.51,8.34,8.34,0,0,0,.45,3.13,23,23,0,0,0,3,5.92l-.78.67-7.58-7.51h.73a4.72,4.72,0,0,0-1.36,3.23,9,9,0,0,0,.74,3.68,14.53,14.53,0,0,0,.93,1.9c.35.6.77,1.18,1.17,1.79.81,1.21,1.61,2.41,2.41,3.59l4.68,7,.08.12v.13c.17,2.84.3,5.63.22,8.41a18.76,18.76,0,0,1-.17,2.1c-.12.67-.23,1.34-.34,2-.22,1.31-.44,2.61-.66,3.88l-.43,2.54-.56-2.49c-.71-3.08-1.4-6.13-2-8.93l.07.17-10.61-15.46.71.08a6.35,6.35,0,0,0-1.28,2.28,10.39,10.39,0,0,0-.53,2.65,10.86,10.86,0,0,0,1.21,5.12,63.4,63.4,0,0,0,5.17,9.06l.08.12V200c-.39,9.62-.63,18.4-.59,26.15,0,1.94,0,3.81.15,5.6a14.45,14.45,0,0,0,.89,5,76.47,76.47,0,0,0,4.09,8.16c2.7,4.81,5,8.49,6.49,11,.75,1.24,1.33,2.2,1.74,2.86.18.32.33.56.43.74S252.77,259.78,252.76,259.79Z" style="fill:#eb996e"></path><path d="M257.48,200.86c-.14,0-.36-1.69-.61-4.44s-.5-6.55-.73-10.76c0-.39,0-.78-.06-1.15l.13.32c-2.64-2.93-5-5.59-6.59-7.53a17.22,17.22,0,0,1-2.48-3.26c.1-.1,1.23,1,3,2.79s4.19,4.38,6.84,7.3l.13.14v.18l.06,1.16c.23,4.2.37,8,.43,10.77S257.62,200.85,257.48,200.86Z" style="fill:#eb996e"></path><path d="M263.58,192.72a17.14,17.14,0,0,1-.56-4.06c-.23-2.53-.47-6-.69-10l.16.35-.9-.88c-3-3-5.73-5.68-7.65-7.69s-3.05-3.31-2.95-3.41,1.42,1,3.47,2.88,4.83,4.52,7.86,7.48l.89.88.15.14v.2c.19,3.94.31,7.47.35,10S263.72,192.71,263.58,192.72Z" style="fill:#eb996e"></path><path d="M214.14,217.55s-1.7-11.57-3.29-15.69-6-9.32-6-9.32,2.42-2.7,6.29-.42c5,3,4.78,9.69,4.78,9.69Z" style="fill:#ffbe9d"></path><path d="M215.41,202.91s-2.74-19.18-2.56-20.46,7.31-18.09,7.31-18.09,4.2-.36,3.66,3.66a54.54,54.54,0,0,1-2,8.4l11.32-13.15a3.55,3.55,0,0,1,2.56,5.11s3.84-.55,2.74,5.85l-5.06,9.71.57,10.09,8.33-10.94s4,2.47,2,6.49-6.21,13.33-6.21,13.33l1.22,14.44s2.13,8,0,12.24-4.15,8-4.15,8l-3.81,35.06-24.79-15.56,7.23-35.21Z" style="fill:#ffbe9d"></path><path d="M231.33,272.69a2.66,2.66,0,0,1,0-.62c0-.42.08-1,.14-1.8.16-1.59.38-3.92.67-6.93.62-6,1.51-14.81,2.64-25.75v-.06l0-.06,2.25-4.4,1.18-2.31a16.47,16.47,0,0,0,1.08-2.35,14.89,14.89,0,0,0,.44-5.33,32.53,32.53,0,0,0-.9-5.62v-.08c-.4-4.57-.82-9.4-1.26-14.43v-.12l.05-.1q2.21-4.75,4.55-9.81l1.18-2.55a9.52,9.52,0,0,0,.93-2.49,4.7,4.7,0,0,0-2.3-4.37l.65-.12-8.31,11-.84,1.09-.08-1.37c-.18-3.19-.38-6.62-.58-10.09v-.15l.07-.12L238,174l-.05.15a10,10,0,0,0,.1-3,2.36,2.36,0,0,0-1.53-2.12,2.07,2.07,0,0,0-.72-.08l-.87.08.31-.79a3.43,3.43,0,0,0,.06-2.8,3.51,3.51,0,0,0-2.25-1.62l.51-.17-11.34,13.15-1.64,1.91.77-2.4a54,54,0,0,0,1.81-7.16,14.37,14.37,0,0,0,.23-1.74,2.66,2.66,0,0,0-.38-1.45,3.2,3.2,0,0,0-2.78-1l.42-.3c-1.42,3.37-2.81,6.69-4.17,9.93q-1,2.44-2,4.83c-.31.79-.63,1.59-.91,2.37-.06.19-.15.41-.19.57l-.07.25v.26c0,.36,0,.8.08,1.21.71,6.64,1.62,13,2.43,18.88V203c-.62,6.91-1.2,13.26-1.71,19v0l-5.46,25.81-1.52,6.94c-.18.77-.32,1.37-.41,1.79a2.62,2.62,0,0,1-.18.6,2.57,2.57,0,0,1,.08-.62c.07-.43.18-1,.32-1.81.31-1.61.75-3.95,1.33-7,1.21-6.07,3-14.88,5.15-25.87v0c.48-5.74,1-12.1,1.58-19V203c-.84-5.92-1.78-12.21-2.52-18.91,0-.42-.08-.83-.1-1.3v-.38l.09-.36c.07-.25.15-.42.22-.64.28-.81.59-1.61.91-2.41l1.95-4.85,4.14-10,.12-.29h.3a5.12,5.12,0,0,1,2,.25,3.23,3.23,0,0,1,1.7,1.23,3.46,3.46,0,0,1,.56,2,12.64,12.64,0,0,1-.23,1.91,56.12,56.12,0,0,1-1.84,7.3l-.87-.49q5.54-6.45,11.32-13.16l.21-.25.29.08a5.11,5.11,0,0,1,1.68.75,3.81,3.81,0,0,1,1.27,1.4,4.41,4.41,0,0,1,0,3.66l-.56-.7a2.79,2.79,0,0,1,1.16.11,2.87,2.87,0,0,1,1.61,1.18,4.17,4.17,0,0,1,.66,1.76,11.28,11.28,0,0,1-.1,3.4l0,.07,0,.08-5.07,9.7.06-.26c.2,3.47.39,6.9.57,10.09l-.91-.28,8.34-10.93.28-.37.37.25a6.73,6.73,0,0,1,2.14,2.27,4.83,4.83,0,0,1,.6,3.07,9.61,9.61,0,0,1-1,2.79c-.4.85-.79,1.7-1.18,2.54q-2.35,5-4.57,9.76l0-.22c.42,5,.81,9.86,1.19,14.43v-.07a33.72,33.72,0,0,1,.89,5.79,15.8,15.8,0,0,1-.51,5.62,16.42,16.42,0,0,1-1.15,2.46l-1.19,2.3c-.79,1.5-1.55,3-2.29,4.38l0-.12c-1.25,10.92-2.26,19.67-3,25.71-.36,3-.65,5.32-.84,6.92-.11.77-.19,1.36-.24,1.78A2.61,2.61,0,0,1,231.33,272.69Z" style="fill:#eb996e"></path><path d="M220.54,196.94c-.29,0-1.17-4.74-2-10.68-.23-1.73-.44-3.37-.59-4.8l0-.18.09-.14c2.08-2.91,3.59-4.83,3.76-4.72s-1.05,2.23-3,5.24l.08-.32c.23,1.42.47,3,.7,4.78C220.4,192.06,220.82,196.9,220.54,196.94Z" style="fill:#eb996e"></path><path d="M226.9,192.54c-.24,0-.88-4-1.57-9.68l0-.18.1-.16,2.16-3.18c4.25-6.22,7.88-11.12,8.12-11s-3,5.33-7.26,11.55c-.77,1.1-1.5,2.17-2.19,3.16l.08-.34C226.88,188.39,227.13,192.51,226.9,192.54Z" style="fill:#eb996e"></path></g><g id="freepik--Desk--inject-45"><path d="M475.52,477.3c0,.14-101,.26-225.51.26s-225.53-.12-225.53-.26S125.44,477,250,477,475.52,477.15,475.52,477.3Z" style="fill:#263238"></path></g><g id="freepik--Plant--inject-45"><path d="M98.76,307.83c-11.71-17.91-11.26-44.1,2.72-60.29,4.35-5,10.41-9.4,17-8.83,6.78.58,12.24,6.39,14.3,12.87s1.35,13.5.13,20.19c-1.69,9.38-4.53,19-11,25.92s-14.8,14.71-23.15,10.14" style="fill:#FF725E"></path><path d="M104,393.45a26.74,26.74,0,0,1,7.46-30.39c2.69-2.2,6.21-3.9,9.57-3s5.73,4.4,6.2,7.93-.53,7.08-1.76,10.41c-1.72,4.68-4,9.36-8,12.36s-9.55,5.81-13.44,2.7" style="fill:#FF725E"></path><path d="M75.74,387.31c3.22-15.88-5.15-33.41-19.53-40.88-4.46-2.32-10-3.7-14.45-1.45s-6.82,7.93-6.45,13.06,2.83,9.88,5.56,14.25c3.82,6.11,8.5,12.06,15,15.14s15.25,5.43,19.85-.12" style="fill:#FF725E"></path><path d="M77.76,344.36c5.61-18.09-3.89-40-19.74-50.41-4.92-3.22-11.14-5.46-16.64-3.37s-8.86,8.42-9,14.43,2.14,11.82,4.8,17.22c3.72,7.57,8.47,15,15.69,19.38s18.92,8.67,24.92,2.75" style="fill:#FF725E"></path><path d="M89,432.8a3.65,3.65,0,0,1-.19-.87c-.1-.66-.22-1.5-.37-2.53-.08-.55-.17-1.16-.26-1.82s-.26-1.39-.41-2.15c-.3-1.55-.6-3.31-1.11-5.22-.23-1-.47-2-.73-3s-.62-2.11-.94-3.23c-.61-2.24-1.5-4.57-2.33-7a136.87,136.87,0,0,0-7-15.49,135.79,135.79,0,0,0-9-14.38c-1.6-2.07-3-4.1-4.58-5.84l-2.17-2.57-2.11-2.28c-1.31-1.48-2.61-2.71-3.74-3.81L52.49,361l-1.38-1.22-1.89-1.71c-.43-.4-.65-.61-.63-.64a4.46,4.46,0,0,1,.72.52l2,1.6,1.43,1.18,1.61,1.49c1.16,1.08,2.49,2.28,3.84,3.75l2.16,2.25,2.21,2.56c1.57,1.74,3,3.76,4.66,5.83a129.46,129.46,0,0,1,9.16,14.44,130.4,130.4,0,0,1,7,15.61c.82,2.49,1.7,4.84,2.28,7.1.31,1.13.61,2.21.91,3.26s.46,2.07.68,3c.48,1.93.75,3.71,1,5.26.13.78.24,1.5.35,2.17s.13,1.28.19,1.84q.15,1.56.24,2.55A5,5,0,0,1,89,432.8Z" style="fill:#263238"></path><path d="M88.61,436.05a1.63,1.63,0,0,1,0-.36c0-.28,0-.62.08-1.05.09-1,.21-2.32.37-4,.09-.87.18-1.84.29-2.9s.11-2.22.17-3.46c.09-2.49.33-5.31.24-8.45,0-1.56,0-3.2,0-4.91s-.18-3.48-.27-5.32c-.12-3.68-.62-7.58-1.06-11.7a185,185,0,0,0-5.55-26.31,185,185,0,0,0-9.69-25.09c-1.88-3.69-3.58-7.23-5.49-10.39-.93-1.58-1.76-3.16-2.67-4.6s-1.81-2.81-2.66-4.13c-1.64-2.68-3.38-4.92-4.81-6.95-.73-1-1.39-2-2-2.81l-1.83-2.27-2.5-3.17-.63-.84a1.34,1.34,0,0,1-.2-.3s.1.08.26.25l.69.79,2.62,3.08,1.88,2.24c.66.83,1.33,1.78,2.08,2.78,1.47,2,3.25,4.24,4.92,6.9l2.71,4.12c.93,1.44,1.78,3,2.72,4.6,1.94,3.15,3.68,6.7,5.57,10.4a178,178,0,0,1,9.79,25.18,177.8,177.8,0,0,1,5.52,26.44c.42,4.13.9,8.05,1,11.75.07,1.84.22,3.62.22,5.34s0,3.36,0,4.93c0,3.14-.23,6-.36,8.47-.09,1.24-.14,2.4-.24,3.46s-.25,2-.35,2.91c-.22,1.69-.39,3-.52,4l-.15,1C88.65,435.94,88.63,436.06,88.61,436.05Z" style="fill:#263238"></path><path d="M119.1,260.34a1.48,1.48,0,0,1-.15.33l-.5.94-2,3.57c-.43.78-.94,1.63-1.44,2.59l-1.57,3.15c-.56,1.13-1.16,2.34-1.8,3.61s-1.19,2.7-1.84,4.15-1.33,3-2,4.57l-1.94,5.05-1,2.66c-.3.91-.62,1.84-.94,2.78-.63,1.89-1.29,3.83-2,5.82-2.48,8-4.83,17-6.82,26.46s-3.27,18.65-4.27,27c-.85,8.36-1.48,15.91-1.65,22.26-.17,3.18-.2,6.05-.21,8.58s0,4.7,0,6.48,0,3.1.06,4.09c0,.43,0,.79,0,1.07a1.53,1.53,0,0,1,0,.37s0-.13,0-.37,0-.63-.08-1.06c-.05-1-.11-2.36-.2-4.09s-.14-4-.14-6.49,0-5.41.09-8.6c.11-6.37.68-13.94,1.5-22.32s2.29-17.54,4.22-27.08,4.37-18.48,6.9-26.52q1-3,2-5.82.48-1.41,1-2.79l1-2.66c.69-1.74,1.36-3.42,2-5s1.39-3.12,2-4.57,1.26-2.85,1.89-4.14l1.86-3.6,1.63-3.13c.52-.95,1-1.79,1.5-2.55l2.13-3.51.57-.9C119,260.43,119.09,260.33,119.1,260.34Z" style="fill:#263238"></path><path d="M115.12,370.25a15.82,15.82,0,0,1-1.24,2.18c-.86,1.37-2,3.39-3.42,5.93s-2.9,5.61-4.43,9.1-3,7.42-4.31,11.62-2.26,8.29-3,12-1.19,7.15-1.47,10-.46,5.2-.53,6.81a16.46,16.46,0,0,1-.2,2.51,16.48,16.48,0,0,1-.09-2.51c0-1.62.06-4,.28-6.86A101.06,101.06,0,0,1,98,411a114.15,114.15,0,0,1,3-12.12,113,113,0,0,1,4.39-11.68,101.2,101.2,0,0,1,4.61-9.09c1.45-2.51,2.7-4.49,3.63-5.82A16.82,16.82,0,0,1,115.12,370.25Z" style="fill:#263238"></path><polygon points="66.03 424.74 117.47 424.74 111.24 477.28 72.43 477.28 66.03 424.74" style="fill:#455a64"></polygon><polygon points="67.9 471.61 72.27 477.28 111.24 477.28 115.74 471.79 67.9 471.61" style="fill:#263238"></polygon><path d="M115.46,440.19c0,.22-10.67.39-23.84.39s-23.84-.17-23.84-.39,10.67-.38,23.84-.38S115.46,440,115.46,440.19Z" style="fill:#fafafa"></path><path d="M115.46,443.69c0,.21-10.67.38-23.84.38s-23.84-.17-23.84-.38,10.67-.38,23.84-.38S115.46,443.48,115.46,443.69Z" style="fill:#fafafa"></path><path d="M114.82,447.08c0,.21-10.3.38-23,.38s-23-.17-23-.38,10.3-.39,23-.39S114.82,446.87,114.82,447.08Z" style="fill:#fafafa"></path><path d="M73.88,311.5a1.64,1.64,0,0,1,0,.5c0,.39-.07.86-.12,1.43-.13,1.32-.31,3.09-.53,5.24-.47,4.41-1.15,10.51-1.94,17.24,0,.26-.06.52-.09.76l0,.22H71c-6.61.1-12.56.16-16.85.18H49l-1.37,0a1.91,1.91,0,0,1-.49-.05,1.58,1.58,0,0,1,.48-.06l1.38-.07,5.08-.16c4.29-.11,10.24-.24,16.85-.34l-.26.23.09-.76c.79-6.73,1.53-12.82,2.1-17.23.28-2.14.52-3.9.69-5.21.09-.57.16-1,.21-1.42A3,3,0,0,1,73.88,311.5Z" style="fill:#263238"></path><path d="M62.19,295.79a1.93,1.93,0,0,1,0,.52c0,.39,0,.88,0,1.47,0,1.36,0,3.19-.05,5.42-.06,4.58-.19,10.9-.36,17.89,0,.28,0,.56,0,.82v.28l-.27,0a162.91,162.91,0,0,0-17.3-.39c-2.2.07-4,.16-5.21.23l-1.42.06a1.68,1.68,0,0,1-.49,0,2.74,2.74,0,0,1,.48-.09L39,321.8c1.23-.13,3-.27,5.22-.39a138.36,138.36,0,0,1,17.35.23l-.28.26c0-.26,0-.54,0-.83.17-7,.35-13.3.51-17.88.09-2.22.16-4.06.22-5.41,0-.59.06-1.08.08-1.48A2,2,0,0,1,62.19,295.79Z" style="fill:#263238"></path><path d="M48.5,290.44a10.39,10.39,0,0,1,.32,1.51c.19,1.06.45,2.45.76,4.13.67,3.49,1.71,8.31,3.18,13.58l.15.55-.52-.25-.61-.3a44.6,44.6,0,0,0-13.72-4c-1.82-.22-3.31-.31-4.34-.35a10.72,10.72,0,0,1-1.6-.08,1.13,1.13,0,0,1,.41-.06c.27,0,.67-.05,1.19-.06a37.66,37.66,0,0,1,4.38.18A41.91,41.91,0,0,1,52,309.19l.63.3-.37.31a134,134,0,0,1-3-13.65c-.29-1.76-.48-3.19-.6-4.17A8.4,8.4,0,0,1,48.5,290.44Z" style="fill:#263238"></path><path d="M121.14,386.22c0,.08-1.49-.07-3.89-.16a65.68,65.68,0,0,0-9.35.3c-.74.08-1.47.17-2.16.27l-.24,0,0-.24c-.55-3.11-1-5.85-1.33-7.82a20.24,20.24,0,0,1-.4-3.17,22.31,22.31,0,0,1,.73,3.11c.4,1.95.93,4.68,1.51,7.79l-.29-.21c.7-.1,1.42-.2,2.17-.28a52.53,52.53,0,0,1,9.43-.15c1.21.09,2.18.22,2.84.31A4.45,4.45,0,0,1,121.14,386.22Z" style="fill:#263238"></path><path d="M126,376.57c0,.08-1.44-.25-3.77-.54a41,41,0,0,0-9.13-.09l-1.61.2-.27,0,0-.27c-.33-3.2-.59-6-.76-8.07a21.54,21.54,0,0,1-.16-3.28,23.82,23.82,0,0,1,.51,3.25c.26,2,.58,4.85.92,8.05l-.29-.23c.52-.08,1.07-.15,1.63-.21a35.13,35.13,0,0,1,9.23.25c1.17.19,2.11.4,2.75.57A4.22,4.22,0,0,1,126,376.57Z" style="fill:#263238"></path><path d="M129.49,285.11a4,4,0,0,1-.51.26l-1.51.67-5.56,2.37L103.48,296l-1,.41-.24.1-.1-.23-7.79-17.59c-.94-2.2-1.72-4-2.29-5.32l-.6-1.45a1.79,1.79,0,0,1-.17-.52,2.48,2.48,0,0,1,.27.48c.18.37.41.84.68,1.41l2.44,5.25c2,4.53,4.84,10.68,7.93,17.52l-.33-.13,1-.41,18.49-7.49,5.63-2.22,1.54-.57A2,2,0,0,1,129.49,285.11Z" style="fill:#263238"></path><path d="M134,262.89a2.77,2.77,0,0,1-.45.33l-1.35.87-5,3.13-16.76,10.22-.27.16-.11-.3-.3-.8-7-18.95c-.86-2.38-1.56-4.33-2.07-5.76l-.54-1.58a3,3,0,0,1-.16-.56,2.14,2.14,0,0,1,.26.53l.63,1.54,2.22,5.7,7.17,18.9c.1.27.21.55.3.81l-.38-.14L127,266.91l5.11-3,1.4-.79A2.11,2.11,0,0,1,134,262.89Z" style="fill:#263238"></path><path d="M132.52,251a8.61,8.61,0,0,1-1.11.65c-.72.4-1.77,1-3,1.78a54.21,54.21,0,0,0-9.32,7.29l-.64.63.21-.88c.23-.92.44-1.89.59-2.89a33.58,33.58,0,0,0-.72-13.7,40.2,40.2,0,0,0-1.32-4,9.67,9.67,0,0,1-.55-1.45,8.7,8.7,0,0,1,.74,1.37,31,31,0,0,1,1.48,4,32.09,32.09,0,0,1,.89,13.89c-.16,1-.38,2-.61,2.93l-.43-.25a49.41,49.41,0,0,1,9.51-7.22c1.3-.75,2.38-1.29,3.13-1.64A5.82,5.82,0,0,1,132.52,251Z" style="fill:#263238"></path><path d="M73.82,366.37a8.17,8.17,0,0,1-.24,1.33c-.18.85-.44,2.08-.72,3.62a87.48,87.48,0,0,0-1.38,12.18v.24h-.23l-1.16.07c-5.1.31-9.72.56-13.06.71l-4,.16a7.51,7.51,0,0,1-1.46,0,8.24,8.24,0,0,1,1.44-.18l4-.33c3.34-.24,8-.55,13-.86l1.15-.07-.24.25a75.71,75.71,0,0,1,1.55-12.23c.33-1.53.64-2.76.88-3.59A6,6,0,0,1,73.82,366.37Z" style="fill:#263238"></path><path d="M63.71,351.88a7.44,7.44,0,0,1-.09,1.34c-.11.95-.25,2.18-.41,3.66-.38,3.09-.93,7.39-1.58,12.21l0,.21h-.21l-1.66.11c-5.22.35-9.94.89-13.34,1.34l-4,.54a7.84,7.84,0,0,1-1.49.15,7.41,7.41,0,0,1,1.45-.35c1-.19,2.32-.44,4-.71,3.4-.53,8.12-1.13,13.37-1.49l1.66-.11-.24.23c.66-4.82,1.27-9.11,1.74-12.19l.57-3.64A6.6,6.6,0,0,1,63.71,351.88Z" style="fill:#263238"></path><path d="M51.81,345.64c.07,0-.24,1.41-.61,3.71a66.18,66.18,0,0,0-.82,9.1v.29l-.29,0-.86-.11A81.48,81.48,0,0,0,39.5,358l-3,0a4.42,4.42,0,0,1-1.09,0,4.29,4.29,0,0,1,1.07-.17c.7-.08,1.71-.15,3-.2a61.81,61.81,0,0,1,9.78.43l.87.11-.29.25a53.85,53.85,0,0,1,1-9.16c.23-1.14.46-2.06.63-2.68A4,4,0,0,1,51.81,345.64Z" style="fill:#263238"></path><path d="M119.58,360.13a44.64,44.64,0,0,1-2.29,5.22,45.77,45.77,0,0,1-2.48,5.14,38.47,38.47,0,0,1,4.77-10.36Z" style="fill:#263238"></path><path d="M126.05,367a50.28,50.28,0,0,0-5.85,1.19,51.51,51.51,0,0,0-5.49,2.33,13.13,13.13,0,0,1,5.34-2.83A13.4,13.4,0,0,1,126.05,367Z" style="fill:#263238"></path></g><g id="freepik--Clock--inject-45"><path d="M456.25,477.63H388.59V426.8A33.83,33.83,0,0,1,422.42,393h0a33.83,33.83,0,0,1,33.83,33.83Z" style="fill:#455a64"></path><circle cx="423.17" cy="426.54" r="20.12" transform="translate(-88.86 740.92) rotate(-76.78)" style="fill:#f5f5f5"></circle><path d="M430.37,423.83c.12.16-2.8,2.58-6.94,5.78l-.67.52v-.85c0-1.16,0-2.39,0-3.66,0-3.5,0-6.67.13-9a14.87,14.87,0,0,1,.32-3.71,15.88,15.88,0,0,1,.31,3.71c.08,2.3.13,5.47.13,9,0,1.27,0,2.5,0,3.66l-.68-.34C427.12,425.82,430.25,423.67,430.37,423.83Z" style="fill:#263238"></path><path d="M441.17,466.64a5,5,0,0,1-.06-.83c0-.61,0-1.37-.07-2.29,0-2.06-.09-4.88-.16-8.36l.29.29c-8.55.09-21.51.15-36,.15l.44-.44h0V461c0,1.92,0,3.8,0,5.61l-.43-.43c10.26,0,19.19.12,25.61.2l7.57.12,2.06.06a7.22,7.22,0,0,1,.75.05,2.31,2.31,0,0,1-.64.06l-2,.05-7.47.12c-6.4.09-15.47.18-25.91.2h-.43v-.43c0-1.81,0-3.69,0-5.61v-5.85h0l.44-.44c14.48,0,27.44.06,36,.15h.29v.28c-.07,3.55-.12,6.43-.16,8.54,0,.89-.05,1.62-.07,2.22A2.88,2.88,0,0,1,441.17,466.64Z" style="fill:#263238"></path></g><g id="freepik--speech-bubble--inject-45"><path d="M176.28,174.39l-34.66-8.52.25,0a57.56,57.56,0,0,1-29.92,9,62.86,62.86,0,0,1-18.54-2.7,57.51,57.51,0,0,1-18.07-9.58,58.1,58.1,0,0,1-21.86-38.64A57.37,57.37,0,0,1,68.37,77.61a60.31,60.31,0,0,1,10-8.75c1.88-1.16,3.73-2.36,5.66-3.38L87,64.06l1.47-.7L90,62.8A58.65,58.65,0,0,1,114.93,59,57.7,57.7,0,0,1,165.8,97.84a59.92,59.92,0,0,1,3.2,18.72,57.56,57.56,0,0,1-8.3,30v-.31l15.58,28.12-16.12-27.81-.09-.16.09-.16a57.07,57.07,0,0,0,8-29.7,59.2,59.2,0,0,0-3.24-18.41,56.75,56.75,0,0,0-50.06-38,57.42,57.42,0,0,0-24.43,3.74l-1.5.55-1.44.7L84.6,66.5c-1.89,1-3.7,2.18-5.54,3.31a58.87,58.87,0,0,0-9.84,8.58A56.92,56.92,0,0,0,76,161.72,56.64,56.64,0,0,0,93.7,171.2a61.8,61.8,0,0,0,18.24,2.74,57.2,57.2,0,0,0,29.59-8.66l.12-.08.13,0Z" style="fill:#263238"></path><path d="M106.27,91.12l1.83,29a4.7,4.7,0,0,0,4.41,4.39h0a4.7,4.7,0,0,0,4.95-4.18l3.21-29.1A3.68,3.68,0,0,0,117,87.1l-7.06.1A3.69,3.69,0,0,0,106.27,91.12Z" style="fill:#FF725E"></path><path d="M120.19,140.76a7.07,7.07,0,1,1-4.49-8.94A7.07,7.07,0,0,1,120.19,140.76Z" style="fill:#FF725E"></path></g></svg>